<svg width="648" height="633" viewBox="0 0 648 633" fill="none" xmlns="http://www.w3.org/2000/svg">
<path d="M648 316.5L324 0L0 316.5H104.761L324 97.8464L543.239 316.5H648Z" fill="#8E9CBF"/>
<path d="M5.24477e-05 316.5L324 633L648 316.5L543.239 316.5L324 535.154L104.761 316.5L5.24477e-05 316.5Z" fill="#A3B3DC"/>
<path d="M516 316.569L324 129.013L132 316.569H194.081L324 186.996L453.919 316.569H516Z" fill="#A3D1DB"/>
<path d="M132 316.569L324 504.124L516 316.569L453.919 316.569L324 446.141L194.081 316.569L132 316.569Z" fill="#8EB6BF"/>
<path d="M417.888 316H230.966L324.427 229.254L417.888 316Z" fill="#90C2A7"/>
<path d="M231 316H417.923L324.461 402.746L231 316Z" fill="#A3DCBD"/>
</svg>
